{"title":"Puppet Master Axis Of Evil 2010 DvDRip Ac3 Feel-Free","uid":5911713,"size":1014429775,"categoryP":"video","categoryS":"movies","magnet":"?xt=urn:btih:812386688c0cc463ae12ddc9a0e979ffa94022a7&amp;dn=Puppet+Master+Axis+Of+Evil+2010+DvDRip+Ac3+Feel-Free&amp;tr=udp%3A%2F%2Ftracker.openbittorrent.com%3A80&amp;tr=udp%3A%2F%2Fopen.demonii.com%3A1337&amp;tr=udp%3A%2F%2Ftracker.coppersurfer.tk%3A6969&amp;tr=udp%3A%2F%2Fexodus.desync.com%3A6969","seeders":1,"leechers":0,"uploader":".BONE.","files":9,"time":1288077258,"description":"\nGenre:Horror | Sci-Fi | Thriller | War\nLanguage:English\nIMDb:http://www.imdb.com/title/tt1504467\nSource:DVD\n\nGeneral\nComplete name :Puppet Master Axis Of Evil 2010 DvDRip Ac3 Feel-Free\nFormat : AVI\nFormat/Info : Audio Video Interleave\nFile size : 967 MiB\nDuration : 1h 21mn\nOverall bit rate : 1 667 Kbps\nVideo #0\nCodec ID : XVID\nCodec ID/Hint : XviD\nDuration : 1h 21mn\nBit rate : 1 209 Kbps\nWidth : 688 pixels\nHeight : 288 pixels\nDisplay aspect ratio : 2.35:1\nFrame rate : 23.976 fps\nResolution : 24 bits\nColorimetry : 4:2:0\nScan type : Progressive\nBits/(Pixel*Frame) : 0.255\nStream size : 702 MiB (73%)\nWriting library : XviD 1.2.1 (UTC 2008-12-04)\nAudio #1\nID : 1\nFormat : AC-3\nFormat/Info : Audio Coding 3\nCodec ID : 2000\nDuration : 1h 21mn\nBit rate mode : Constant\nBit rate : 448 Kbps\nChannel(s) : 6 channels\nChannel positions : Front: L C R, Surround: L R, LFE\nSampling rate : 48.0 KHz\nStream size : 260 MiB (27%)\nAlignment : Split accross interleaves\nInterleave, duration : 42 ms (1.00 video frame)\nInterleave, preload duration : 500 ms\n\nPlot:\nIn a Stateside hotel during the height of World War II, young Danny Coogan dreams of joining the war effort. Following the murder of hotel guest Mr. Toulon by Nazi assassins, Danny finds the old man's crate of mysterious puppets and is suddenly thrust into a battle all his own. He discovers that Nazis Max and Klaus","torrent":{"xt":"urn:btih:812386688c0cc463ae12ddc9a0e979ffa94022a7","amp;dn":"Puppet+Master+Axis+Of+Evil+2010+DvDRip+Ac3+Feel-Free","amp;tr":["udp%3A%2F%2Ftracker.openbittorrent.com%3A80","udp%3A%2F%2Fopen.demonii.com%3A1337","udp%3A%2F%2Ftracker.coppersurfer.tk%3A6969","udp%3A%2F%2Fexodus.desync.com%3A6969"],"infoHash":"812386688c0cc463ae12ddc9a0e979ffa94022a7","infoHashBuffer":{"type":"Buffer","data":[129,35,134,104,140,12,196,99,174,18,221,201,160,233,121,255,169,64,34,167]},"announce":[],"urlList":[]}}